<svg xmlns="http://www.w3.org/2000/svg" xmlns:xlink="http://www.w3.org/1999/xlink" width="556" height="71.13"><rect width="556" height="71.13" rx="0" ry="0" class="a"/><svg height="65.13" viewBox="0 0 55 6.513" width="550" x="3" xmlns="http://www.w3.org/2000/svg" xmlns:xlink="http://www.w3.org/1999/xlink" y="3"><style>.a{fill:#282d35}.e{fill:#b9c0cb}.h{fill:#e88388}.i{fill:#a8cc8c}.j{fill:#dbab79}.k{fill:#71bef2}.l{fill:#d290e4}.m{fill:#66c2cd}.n{fill:#b9bfca}</style><g font-size="1.67" font-family="Monaco,Consolas,Menlo,'Bitstream Vera Sans Mono','Powerline Symbols',monospace"><defs><symbol id="a"><path fill="transparent" d="M0 0h55v4H0z"/></symbol></defs><path class="a" d="M0 0h55v6.513H0z"/><svg width="55"><svg><use xlink:href="#a"/><text y="1.67" fill="#b9c0cb" font-weight="700">bold</text><text x="5.01" y="1.67" class="e">dim</text><text x="9.018" y="1.67" class="e">italic</text><text x="16.032" y="1.67" fill="#b9c0cb" text-decoration="underline">underline</text><path class="e" d="M26.052 0h7v2.171h-7z"/><text x="26.052" y="1.67" class="a">inverse</text><text x="34.068" y="1.67" class="e">strikethrough</text><text x="48.096" y="1.67" class="g">black</text><text y="3.841" class="h">red</text><text x="4.008" y="3.841" class="i">green</text><text x="10.02" y="3.841" class="j">yellow</text><text x="17.034" y="3.841" class="k">blue</text><text x="22.044" y="3.841" class="l">magenta</text><text x="30.06" y="3.841" class="m">cyan</text><text x="35.07" y="3.841" class="n">white</text><text x="41.082" y="3.841" fill="#6f7783">gray</text>0<text x="46.092" y="3.841" class="e">bgBlack</text><path class="h" d="M0 4.342h5v2.171H0z"/><text y="6.012" class="g">bgRed</text><path class="i" d="M6.012 4.342h7v2.171h-7z"/><text x="6.012" y="6.012" class="g">bgGreen</text><path class="j" d="M14.028 4.342h8v2.171h-8z"/><text x="14.028" y="6.012" class="g">bgYellow</text><path class="k" d="M23.046 4.342h6v2.171h-6z"/><text x="23.046" y="6.012" class="e">bgBlue</text><path class="l" d="M30.06 4.342h9v2.171h-9z"/><text x="30.06" y="6.012" class="g">bgMagenta</text><path class="m" d="M40.08 4.342h6v2.171h-6z"/><text x="40.08" y="6.012" class="g">bgCyan</text><path class="n" d="M47.094 4.342h7v2.171h-7z"/><text x="47.094" y="6.012" class="g">bgWhite</text></svg></svg></g></svg></svg>